Coordinates
version=1
nRows=17
nColumns=40
inDegrees=yes

Units are S.I. units (second, meters, Newtons, ...)
Angles are in degrees.

endheader
time	pelvis_tilt	pelvis_list	pelvis_rotation	pelvis_tx	pelvis_ty	pelvis_tz	hip_flexion_r	hip_adduction_r	hip_rotation_r	knee_angle_r	knee_angle_r_beta	ankle_angle_r	subtalar_angle_r	mtp_angle_r	hip_flexion_l	hip_adduction_l	hip_rotation_l	knee_angle_l	knee_angle_l_beta	ankle_angle_l	subtalar_angle_l	mtp_angle_l	lumbar_extension	lumbar_bending	lumbar_rotation	arm_flex_r	arm_add_r	arm_rot_r	elbow_flex_r	pro_sup_r	wrist_flex_r	wrist_dev_r	arm_flex_l	arm_add_l	arm_rot_l	elbow_flex_l	pro_sup_l	wrist_flex_l	wrist_dev_l
      0.89000000	     -2.24922375	     -0.31998419	      6.91053806	     -0.11818608	      0.87829342	      1.08012507	     27.96641555	     -4.25438797	    -15.20916603	    -25.87071238	     -0.45152911	     -2.24252597	     -9.06413835	      5.97464843	     -3.69296235	      3.27338859	      3.81552169	    -35.56096523	     -0.62065593	      5.93073790	      8.77238510	     -6.92042271	     -3.18309167	      0.12285761	     -9.59089268	     -8.79916117	     -6.17392751	    -16.86874059	     18.36777872	     89.95437384	      0.00000000	      0.00000000	      2.88359903	     11.70536646	     22.76150470	     50.85804943	     89.95437384	      0.00000000	      0.00000000
      0.90000000	     -2.33447364	     -0.65601734	      6.81793934	     -0.10709311	      0.87849450	      1.08175277	     27.69075056	     -3.64900791	    -14.84363362	    -26.39506116	     -0.46068072	     -2.21122444	     -9.77245447	      6.25139925	     -2.85599896	      3.61900947	      3.08098351	    -37.81106312	     -0.65992755	      4.15649197	     10.44512014	     -6.34300552	     -2.91825153	      0.58985324	     -9.37399406	     -8.57717489	     -6.36644246	    -16.51168149	     18.47007037	     89.95437384	      0.00000000	      0.00000000	      2.40220718	     11.46047365	     22.75506193	     50.15208078	     89.95437384	      0.00000000	      0.00000000
      0.91000000	     -2.23716563	     -0.83445393	      6.65530746	     -0.09575660	      0.87919364	      1.08346976	     27.11131051	     -3.16389168	    -14.54893276	    -26.93703360	     -0.47013993	     -1.48527453	     -9.93373307	      6.15779943	     -2.17700562	      3.95096997	      2.92004364	    -39.97424265	     -0.69768215	      1.61275114	     11.35903040	     -5.77903522	     -2.85829536	      0.88846194	     -9.03446961	     -8.28989848	     -6.52914745	    -16.32716449	     18.49730190	     89.95437384	      0.00000000	      0.00000000	      2.03411878	     11.28811516	     22.55481160	     49.15208697	     89.95437384	      0.00000000	      0.00000000
      0.92000000	     -2.25115471	     -1.14733294	      6.50674504	     -0.08458707	      0.87978921	      1.08537165	     26.52593894	     -2.50049732	    -14.21043373	    -27.16702760	     -0.47415408	     -0.94744111	     -9.90310447	      6.11192878	     -1.16495283	      4.44322267	      2.74714763	    -42.33269080	     -0.73884484	     -1.31985694	     12.43839979	     -5.09353352	     -2.67352246	      1.29050105	     -8.72383633	     -8.01694693	     -6.65509245	    -16.22061914	     18.61328080	     89.95437384	      0.00000000	      0.00000000	      1.53696869	     11.18309155	     22.15157152	     48.30014458	     89.95437384	      0.00000000	      0.00000000
      0.93000000	     -2.13198429	     -1.36242478	      6.41315364	     -0.07350926	      0.88074240	      1.08722374	     25.73591983	     -1.98476320	    -14.04586133	    -27.40235153	     -0.47826126	     -0.17238581	     -9.79137090	      5.99033476	     -0.18990019	      4.92152495	      2.71778553	    -44.69558103	     -0.78008505	     -4.62528109	     13.13747138	     -4.43511033	     -2.64721295	      1.57899916	     -8.49597632	     -7.65238584	     -6.77709678	    -16.09532648	     18.75566245	     89.95437384	      0.00000000	      0.00000000	      1.19475146	     11.07594196	     21.85126971	     47.13289070	     89.95437384	      0.00000000	      0.00000000
      0.94000000	     -2.20119317	     -1.77773364	      6.28944567	     -0.06273152	      0.88142760	      1.08933421	     25.07416924	     -1.23824362	    -14.00304218	    -27.40631297	     -0.47833040	      0.53278026	     -9.74136493	      6.05181708	      1.11410454	      5.57573094	      2.52261271	    -47.08524219	     -0.82179251	     -8.19191841	     13.87744268	     -3.52274517	     -2.44940185	      2.03196377	     -8.08302460	     -7.38990727	     -6.87988590	    -16.06497000	     19.00346305	     89.95437384	      0.00000000	      0.00000000	      0.74930721	     10.98602616	     21.31081763	     46.28391458	     89.95437384	      0.00000000	      0.00000000
      0.95000000	     -2.12537857	     -2.01810092	      6.18290479	     -0.05229663	      0.88250672	      1.09123982	     24.23273465	     -0.73174564	    -14.05158536	    -27.40323797	     -0.47827673	      1.32080409	     -9.61997716	      6.01466157	      2.29901961	      6.03977276	      2.27971789	    -49.38487123	     -0.86192860	    -11.22692104	     14.38151463	     -2.81144882	     -2.47107794	      2.32070704	     -7.76898961	     -6.92762566	     -7.00401601	    -16.03448407	     19.16711799	     89.95437384	      0.00000000	      0.00000000	      0.51525433	     10.82592565	     21.00033322	     45.09323081	     89.95437384	      0.00000000	      0.00000000
      0.96000000	     -1.91856797	     -1.76358290	      5.83463224	     -0.04226952	      0.88382086	      1.09289502	     23.28577809	     -0.77014422	    -14.04930082	    -27.44817648	     -0.47906105	      1.71727864	     -9.29447334	      5.87199838	      3.20942356	      5.78070578	      2.05331869	    -51.56562303	     -0.89998990	    -12.59399604	     14.06728948	     -2.56734753	     -2.82554269	      2.08775320	     -7.14913723	     -6.47052490	     -7.09364977	    -15.87825233	     19.50043090	     89.95437384	      0.00000000	      0.00000000	      0.22151024	     10.64945305	     20.72256027	     44.33762433	     89.95437384	      0.00000000	      0.00000000
      0.97000000	     -2.39842469	     -2.44449497	      6.18320951	     -0.03272009	      0.88390642	      1.09437600	     22.98502279	     -0.05421330	    -14.75693426	    -27.21824285	     -0.47504795	      2.63874703	     -8.55056888	      5.94587764	      5.55264296	      6.69702935	      1.37789529	    -54.24452010	     -0.94674548	    -15.05139125	     13.96027796	     -1.52854211	     -2.18561413	      2.77769458	     -7.25739506	     -6.10024826	     -7.21280326	    -16.03803563	     19.88485674	     89.95437384	      0.00000000	      0.00000000	      0.03904025	     10.62028242	     19.93219053	     42.78897002	     89.95437384	      0.00000000	      0.00000000
      0.98000000	     -2.31874497	     -2.42249624	      6.12472153	     -0.02315746	      0.88506792	      1.09558225	     22.02668938	      0.09094834	    -14.90011086	    -26.96463165	     -0.47062160	      3.36802734	     -8.15586556	      5.82803549	      6.88212396	      6.67343488	      1.07870839	    -56.36912890	     -0.98382690	    -16.15761744	     14.12506510	     -1.14704857	     -2.35409856	      2.78725406	     -7.00661915	     -5.48110098	     -7.35103395	    -15.94615388	     20.13918850	     89.95437384	      0.00000000	      0.00000000	     -0.15146445	     10.46325093	     19.56228300	     41.58452285	     89.95437384	      0.00000000	      0.00000000
      0.99000000	     -2.37812083	     -2.60881631	      6.15748518	     -0.01375798	      0.88589111	      1.09692401	     21.19794833	      0.40648104	    -15.31118629	    -26.62141493	     -0.46463134	      4.02450786	     -7.54207137	      5.69466687	      8.52180381	      6.94555644	      0.84191760	    -58.61093657	     -1.02295382	    -16.17843466	     14.62618076	     -0.75344051	     -2.32696243	      2.96407065	     -6.77512358	     -4.95939517	     -7.49010619	    -15.84587712	     20.51420790	     89.95437384	      0.00000000	      0.00000000	     -0.28978822	     10.31314246	     19.10484628	     40.28881185	     89.95437384	      0.00000000	      0.00000000
      1.00000000	     -2.52461517	     -2.75289600	      6.15628692	     -0.00470864	      0.88654330	      1.09811814	     20.51800278	      0.64332316	    -15.73689406	    -26.28075360	     -0.45868568	      4.57532237	     -6.86725195	      5.55192307	     10.29326230	      7.12245128	      0.73883218	    -60.70350243	     -1.05947598	    -15.56574257	     15.34221026	     -0.28905376	     -2.26552763	      3.11781590	     -6.45080265	     -4.50821058	     -7.64328014	    -15.83772878	     21.09043336	     89.95437384	      0.00000000	      0.00000000	     -0.42399619	     10.13696793	     18.57883933	     39.04281054	     89.95437384	      0.00000000	      0.00000000
      1.01000000	     -2.39303406	     -2.45233931	      5.90666899	      0.00476062	      0.88766802	      1.09951165	     19.56453260	      0.49694158	    -15.93483449	    -26.12422328	     -0.45595371	      4.88071775	     -6.65283003	      5.43793725	     11.47060239	      6.95243676	      1.17640476	    -62.24098307	     -1.08631008	    -15.35105316	     15.52191995	     -0.15961242	     -2.57059472	      2.74589867	     -6.06508183	     -3.89059070	     -7.73164596	    -15.76943896	     21.54121901	     89.95437384	      0.00000000	      0.00000000	     -0.82695956	      9.99260079	     18.38523957	     38.23903337	     89.95437384	      0.00000000	      0.00000000
      1.02000000	     -2.72791336	     -2.67626261	      6.03905744	      0.01372062	      0.88794952	      1.10026908	     19.16758497	      0.68938384	    -16.50608102	    -26.00584492	     -0.45388762	      5.88185128	     -4.98171461	      5.61062947	     13.64205974	      6.99431881	      0.98913877	    -64.34653688	     -1.12305893	    -12.59253927	     16.32808636	     15.56307557	     -2.24531048	      2.97350428	     -5.81431972	     -3.58364350	     -7.91422630	    -15.90712141	     22.32162016	     89.95437384	      0.00000000	      0.00000000	     -0.78722451	      9.76572677	     17.85797440	     36.55279118	     89.95437384	      0.00000000	      0.00000000
      1.03000000	     -2.63704173	     -2.64723089	      5.92102100	      0.02303642	      0.88897091	      1.10152747	     18.15527317	      0.92075145	    -16.44278325	    -25.57649671	     -0.44639408	      6.41401046	     -4.80525375	      5.48166337	     14.98321885	      7.00230224	      1.22549705	    -65.61186925	     -1.14514315	    -11.97863335	     17.24991835	     15.56355212	     -2.44552539	      2.91528141	     -5.45500920	     -3.03217719	     -8.06441744	    -15.87406348	     22.88092125	     89.95437384	      0.00000000	      0.00000000	     -1.01129534	      9.55530546	     17.71721002	     35.35589260	     89.95437384	      0.00000000	      0.00000000
      1.04000000	     -2.58782125	     -2.62621626	      5.69804364	      0.03245588	      0.88983283	      1.10284211	     17.22061076	      1.16200227	    -16.33081719	    -25.18638756	     -0.43958539	      6.84358758	     -4.52618980	      5.33386479	     16.31165819	      7.03155147	      1.55869078	    -66.64438791	     -1.16316400	    -11.30098329	     17.85898866	     15.71209136	     -2.58915323	      2.86195961	     -4.96698037	     -2.63134416	     -8.22706595	    -15.83157272	     23.68482993	     89.95437384	      0.00000000	      0.00000000	     -1.20739825	      9.33601947	     17.56462298	     34.10748518	     89.95437384	      0.00000000	      0.00000000
      1.05000000	     -2.49216808	     -2.43356347	      5.46098672	      0.04179884	      0.89073799	      1.10416332	     16.29991385	      1.16478148	    -16.37750470	    -24.93399949	     -0.43518039	      7.15314271	     -4.42840279	      5.21584832	     17.51779581	      6.91700604	      1.98084794	    -67.42390084	     -1.17676906	    -10.80501308	     18.08536929	     15.64913979	     -2.80864779	      2.58733127	     -4.55607353	     -2.05246790	     -8.32757165	    -15.77142829	     24.25742753	     89.95437384	      0.00000000	      0.00000000	     -1.62904797	      9.19298397	     17.49316433	     33.23888654	     89.95437384	      0.00000000	      0.00000000
